<?xml version="1.0" encoding="UTF-8"?>
<svg width="180" height="180" viewBox="0 0 180 180" fill="none" xmlns="http://www.w3.org/2000/svg">
  <rect width="180" height="180" rx="90" fill="#4F46E5"/>
  <path d="M90 45C90 40.3402 86.5741 36.5625 82.2656 36.5625H60.2344C55.9259 36.5625 52.5 40.3402 52.5 45V135C52.5 139.66 55.9259 143.438 60.2344 143.438H82.2656C86.5741 143.438 90 139.66 90 135V45Z" fill="white"/>
  <path d="M127.5 45C127.5 40.3402 124.074 36.5625 119.766 36.5625H97.7344C93.4259 36.5625 90 40.3402 90 45V135C90 139.66 93.4259 143.438 97.7344 143.438H119.766C124.074 143.438 127.5 139.66 127.5 135V45Z" fill="white" fill-opacity="0.7"/>
</svg>
