<?xml version="1.0" encoding="UTF-8"?>
<svg width="512" height="512" viewBox="0 0 512 512" fill="none" xmlns="http://www.w3.org/2000/svg">
  <rect width="512" height="512" rx="256" fill="#4F46E5"/>
  <path d="M256 128C256 114.745 246.255 104 233 104H171C157.745 104 148 114.745 148 128V384C148 397.255 157.745 408 171 408H233C246.255 408 256 397.255 256 384V128Z" fill="white"/>
  <path d="M364 128C364 114.745 354.255 104 341 104H279C265.745 104 256 114.745 256 128V384C256 397.255 265.745 408 279 408H341C354.255 408 364 397.255 364 384V128Z" fill="white" fill-opacity="0.7"/>
</svg>
