<?xml version="1.0" encoding="UTF-8"?>
<svg width="192" height="192" viewBox="0 0 192 192" fill="none" xmlns="http://www.w3.org/2000/svg">
  <rect width="192" height="192" rx="96" fill="#4F46E5"/>
  <path d="M96 48C96 43.0294 92.3456 39 87.75 39H64.25C59.6544 39 56 43.0294 56 48V144C56 148.971 59.6544 153 64.25 153H87.75C92.3456 153 96 148.971 96 144V48Z" fill="white"/>
  <path d="M136 48C136 43.0294 132.346 39 127.75 39H104.25C99.6544 39 96 43.0294 96 48V144C96 148.971 99.6544 153 104.25 153H127.75C132.346 153 136 148.971 136 144V48Z" fill="white" fill-opacity="0.7"/>
</svg>
